<?xml version="1.0" encoding="utf-8"?>
<!-- Generator: Adobe Illustrator 19.2.0, SVG Export Plug-In . SVG Version: 6.00 Build 0)  -->
<svg version="1.1" id="Layer_1" xmlns="http://www.w3.org/2000/svg" xmlns:xlink="http://www.w3.org/1999/xlink" x="0px" y="0px"
	 viewBox="0 0 573.3 401.3" style="enable-background:new 0 0 573.3 401.3;" xml:space="preserve">
<style type="text/css">
	.st0{opacity:0.2;fill:#ED143D;}
</style>
<title>mic1.5</title>
<title>Layer 1</title>
<path class="st0" d="M570.5,321.9c-11.6-26-56.3-37.7-71.5-41c1.5-6.6,2.2-14.1,2.3-14.6l0.1-0.9l-315-176.3
	c0.2-12-2.2-24.1-7.3-35.5c-10-22.3-28.7-39.3-52.7-47.9C78.3-11.5,24.4,11.3,6.1,56.6C-2.5,77.9-2,101.1,7.4,122
	c10,22.3,28.7,39.3,52.7,47.9c10.9,3.9,22,5.7,33,5.7c18.2,0,35.9-5.1,50.9-14.3c73.5,32.7,302.9,135,316,140.2
	c3.2,1.3,6.3,1.8,9.4,1.8c11.5,0,21.5-7.7,25.4-12.3c17.6,3.5,56.8,15.1,65.7,35.2c3.4,7.7,2.2,16.1-3.8,25.6
	c-6.2,9.8-21.8,13.5-42.4,13.5c-34.1,0-81.8-10-123.3-18.7c-68.3-14.3-111-22.4-125.7-8.5c-9.3,8.8-13.3,18.2-12,28.2
	c2.6,20.4,27.5,34.2,28.5,34.8l5.2-9.5c-5.9-3.2-21.4-14.3-23-26.7c-0.8-6.4,2-12.6,8.7-18.9c11.4-10.7,67,0.9,116.1,11.2
	c77,16.2,156.7,32.9,177,0.3C573.9,345.1,575.4,333,570.5,321.9z M180.3,119.1c1.8-4.5,3.2-9.1,4.2-13.7l178,100.4l-1.5,8
	l-183.6-88.3C178.4,123.3,179.4,121.2,180.3,119.1z"/>
</svg>
